<svg width="33" height="33" viewBox="0 0 33 33" fill="none" xmlns="http://www.w3.org/2000/svg">
<path d="M33 16.5C33 25.6127 25.6127 33 16.5 33C7.3873 33 0 25.6127 0 16.5C0 7.3873 7.3873 0 16.5 0C25.6127 0 33 7.3873 33 16.5Z" fill="#202160"/>
<path d="M32 16.5C32 25.0604 25.0604 32 16.5 32V33C25.6127 33 33 25.6127 33 16.5H32ZM16.5 32C7.93959 32 1 25.0604 1 16.5H0C0 25.6127 7.3873 33 16.5 33V32ZM1 16.5C1 7.93959 7.93959 1 16.5 1V0C7.3873 0 0 7.3873 0 16.5H1ZM16.5 1C25.0604 1 32 7.93959 32 16.5H33C33 7.3873 25.6127 0 16.5 0V1ZM9.5 9.5L23.5 23.5L24.2071 22.7929L10.2071 8.79289L9.5 9.5ZM9.5 23.5L23.5 9.49995L22.7929 8.79285L8.79289 22.7928L9.5 23.5Z" fill="#5CC8B0"/>
</svg>
